<svg width="242" height="242" version="1.1" xmlns="http://www.w3.org/2000/svg" xmlns:xlink="http://www.w3.org/1999/xlink"><path d="M205.46 85.67L205.46 85.67L203.52 86.88Q190.70 86.88 177.87 88.33L177.87 88.33Q177.14 105.27 174.00 108.66L174.00 108.66L172.06 109.87L171.82 109.87Q168.92 102.85 169.16 89.54L169.16 89.54Q152.22 92.44 145.68 95.11L145.68 95.11Q138.18 92.69 140.84 85.43L140.84 85.43L143.99 77.44Q144.23 76.71 144.23 75.99L144.23 75.99Q144.23 68.97 140.12 60.50L140.12 60.50Q140.12 58.56 144.96 58.56L144.96 58.56Q151.49 62.19 153.67 66.79L153.67 66.79L151.25 83.25L151.25 83.49Q152.70 85.43 157.78 84.70L157.78 84.70Q158.75 84.70 159.24 84.70L159.24 84.70Q160.20 83.97 166.50 83.01L166.50 83.01Q168.43 82.76 169.64 82.04L169.64 82.04L169.88 53.72Q157.78 54.93 154.15 53.24L154.15 53.24Q151.25 52.03 149.80 49.61L149.80 49.61Q152.22 48.64 165.04 46.46L165.04 46.46Q167.71 45.98 169.64 45.25L169.64 45.25Q167.71 27.10 162.14 19.36L162.14 19.36Q162.14 17.67 165.04 16.46L165.04 16.46Q173.76 16.46 181.98 23.72L181.98 23.72Q181.98 25.41 179.81 40.41L179.81 40.41L179.56 42.11Q180.05 42.11 184.89 40.41L184.89 40.41Q188.52 39.69 193.36 41.14L193.36 41.14Q196.75 42.11 198.20 43.80L198.20 43.80Q198.20 47.43 181.74 50.58L181.74 50.58Q180.29 50.82 179.56 51.06L179.56 51.06Q178.11 70.91 177.87 80.59L177.87 80.59L192.87 77.92Q200.38 77.44 204.25 82.28L204.25 82.28Q205.46 83.73 205.46 85.67ZM137.46 50.82L137.46 50.82Q137.46 52.51 134.31 55.66L134.31 55.66Q133.58 56.39 133.10 56.87L133.10 56.87L123.42 73.33Q102.85 106.72 85.43 115.19L85.43 115.19Q78.41 118.58 71.63 118.58L71.63 118.58Q113.98 86.39 121.48 53.00L121.48 53.00L120.03 51.79L106.96 54.21Q104.54 54.21 102.61 53.48L102.61 53.48L90.27 67.28Q99.22 70.66 101.64 73.57L101.64 73.57L102.61 74.78Q103.33 80.59 102.12 81.80L102.12 81.80L101.16 82.28Q95.59 81.55 89.78 73.08L89.78 73.08Q88.09 70.42 87.36 69.70L87.36 69.70Q80.83 74.54 77.20 75.99L77.20 75.99L77.20 74.05Q92.20 53.97 92.69 53.24L92.69 53.24Q100.91 41.14 102.85 31.46L102.85 31.46L102.61 22.26Q102.85 21.05 103.58 20.81L103.58 20.81Q112.53 21.54 117.85 29.52L117.85 29.52Q117.85 33.15 105.03 49.85L105.03 49.85Q117.13 47.67 124.87 44.29L124.87 44.29Q134.55 46.95 137.46 50.82ZM163.11 145.20L163.11 145.20L164.08 144.47L184.40 154.15Q200.38 163.35 200.13 177.63L200.13 177.63Q199.89 194.81 176.90 164.56L176.90 164.56L166.25 153.67Q164.80 151.98 164.08 150.52L164.08 150.52Q163.11 148.83 163.11 145.20ZM193.84 126.32L193.84 126.32Q193.84 129.71 191.42 129.71L191.42 129.71Q173.27 129.71 143.51 132.86L143.51 132.86L143.51 190.21Q143.51 196.50 136.97 203.28L136.97 203.28Q136.00 204.49 135.04 205.22L135.04 205.22L131.16 205.22Q127.53 199.89 112.29 183.68L112.29 183.68Q110.11 181.50 108.42 179.56L108.42 179.56L108.42 179.08L128.26 181.26L128.50 181.26Q132.62 172.79 132.37 135.04L132.37 135.04Q127.05 135.04 111.08 139.15L111.08 139.15L100.43 141.09Q98.74 141.33 97.04 141.33L97.04 141.33Q89.78 141.33 86.88 137.21L86.88 137.21Q86.39 136.49 86.15 135.52L86.15 135.52L86.64 134.31L131.89 127.05Q131.89 113.01 126.32 104.30L126.32 104.30Q126.57 97.28 141.81 107.69L141.81 107.69Q144.23 109.38 145.44 110.35L145.44 110.35Q146.89 113.26 144.47 119.79L144.47 119.79Q143.51 122.45 143.51 124.39L143.51 124.39Q147.14 124.15 163.83 120.27L163.83 120.27Q181.50 116.40 190.21 123.18L190.21 123.18Q192.15 124.39 193.84 126.32ZM86.15 26.62L86.15 26.62Q86.15 30.49 80.59 37.75L80.59 37.75Q78.65 40.41 77.68 42.11L77.68 42.11Q68.49 59.05 53.00 79.38L53.00 79.38Q53.48 80.34 59.29 85.91L59.29 85.91Q63.40 89.78 63.40 93.17L63.40 93.17L61.23 106.24L59.77 153.43L58.81 172.79Q57.11 190.21 51.06 187.07L51.06 187.07Q43.80 182.71 43.80 171.82L43.80 171.82Q43.80 168.67 46.95 155.12L46.95 155.12Q47.19 153.19 47.43 151.73L47.43 151.73Q54.45 115.68 50.34 96.32L50.34 96.32Q49.13 90.51 46.71 87.36L46.71 87.36L32.19 103.82Q25.89 110.11 19.36 113.26L19.36 113.26Q17.18 113.26 17.18 111.56L17.18 111.56L17.67 110.59L46.71 69.94Q71.87 32.19 64.13 17.91L64.13 17.91Q64.13 16.21 67.03 14.52L67.03 14.52Q78.89 15.97 86.15 26.62ZM102.61 151.73L102.61 151.73Q101.16 175.45 90.51 183.44L90.51 183.44L86.15 185.86Q83.97 186.10 83.01 185.61L83.01 185.61Q82.52 184.89 82.04 183.68L82.04 183.68Q79.13 176.66 88.81 164.80L88.81 164.80Q94.86 157.30 96.07 155.36L96.07 155.36Q98.01 151.25 99.95 150.04L99.95 150.04Q101.40 150.04 102.61 151.73Z" stroke="#000" fill="black" /></svg>