<svg width="242" height="242" version="1.1" xmlns="http://www.w3.org/2000/svg" xmlns:xlink="http://www.w3.org/1999/xlink"><path d="M177.63 72.51L177.63 72.51Q172.79 72.51 166.25 65.97L166.25 65.97Q164.80 64.28 163.83 63.55L163.83 63.55L127.78 76.14Q116.64 80.98 108.66 86.79L108.66 86.79Q100.67 86.06 96.80 77.59L96.80 77.59L98.01 73.96Q114.47 61.62 122.94 36.45L122.94 36.45Q124.15 33.06 125.11 29.67L125.11 29.67Q125.36 28.46 124.63 18.54L124.63 18.54Q124.15 12.01 126.32 11.04L126.32 11.04Q137.70 11.77 146.17 18.78L146.17 18.78L146.17 21.93Q141.09 29.19 120.52 63.55L120.52 63.55L119.79 64.76L119.55 66.94L120.27 67.67Q137.21 63.55 160.20 59.44L160.20 59.44L151.25 48.31L151.98 45.16Q162.14 45.16 171.82 52.66L171.82 52.66Q179.56 58.71 179.56 65.49L179.56 65.49Q179.56 70.33 177.63 72.51ZM176.90 96.95L177.39 103.73Q175.93 105.42 170.85 105.42L170.85 105.42L146.65 90.17Q144.72 88.72 144.72 84.85L144.72 84.85Q149.56 83.40 161.90 85.82L161.90 85.82Q165.04 86.54 167.22 86.79L167.22 86.79Q175.45 90.90 176.90 96.95L176.90 96.95ZM68.49 57.02L68.49 57.02Q62.92 57.02 56.14 49.03L56.14 49.03Q51.06 42.98 47.92 41.29L47.92 41.29Q46.22 39.11 46.22 35.97L46.22 35.97Q48.40 34.51 53.24 35.24L53.24 35.24L65.82 38.63Q69.70 40.32 70.66 43.47L70.66 43.47Q72.60 49.03 71.15 53.39L71.15 53.39Q70.42 56.05 68.49 57.02ZM219.49 188.91L219.98 189.64Q219.74 190.36 217.56 191.57L217.56 191.57Q194.33 196.65 176.42 195.69L176.42 195.69Q174.97 195.44 173.76 195.44L173.76 195.44Q164.56 190.60 147.38 175.12L147.38 175.12L143.02 171.00Q122.21 190.36 88.33 190.36L88.33 190.36L87.12 188.67Q114.47 179.47 125.84 171.49L125.84 171.49Q130.92 167.86 135.04 163.74L135.04 163.74L115.43 143.90Q102.37 166.40 71.87 180.68L71.87 180.68L66.31 180.68L66.31 179.71Q92.93 158.18 103.33 142.20L103.33 142.20Q108.42 134.22 111.32 126.23L111.32 126.23Q113.98 118.73 114.71 111.71L114.71 111.71L114.71 105.66L114.95 105.42Q115.43 103.73 119.31 103.97L119.31 103.97Q119.79 104.21 120.27 104.21L120.27 104.21L130.20 110.50Q131.16 112.92 129.23 117.04L129.23 117.04Q132.62 117.04 146.65 114.13L146.65 114.13Q151.73 112.92 155.61 112.92L155.61 112.92Q170.13 120.18 169.64 124.05L169.64 124.05Q169.40 125.75 165.29 129.38L165.29 129.38Q163.83 130.83 163.11 132.04L163.11 132.04Q160.93 135.43 155.12 150.19L155.12 150.19Q152.46 157.21 149.56 161.32L149.56 161.32Q164.56 171.73 196.99 181.65L196.99 181.65Q213.69 186.73 219.49 188.91L219.49 188.91ZM147.14 122.60L147.14 122.60L134.07 124.30Q129.71 124.30 126.32 122.36L126.32 122.36L118.82 138.09L118.82 139.54L140.36 155.27Q146.65 144.62 148.35 132.52L148.35 132.52Q149.31 125.51 147.14 122.60ZM111.32 97.68L113.50 99.61L113.26 102.76L99.22 118.49Q91.48 125.99 83.49 126.72L83.49 126.72L93.90 111.95Q98.74 104.45 99.46 97.68L99.46 97.68Q102.61 95.26 111.32 97.68L111.32 97.68ZM83.01 74.44L84.46 76.38Q83.97 80.49 74.78 82.43L74.78 82.43L48.16 89.69Q31.46 93.56 24.20 90.17L24.20 90.17Q21.54 88.96 21.54 86.79L21.54 86.79Q24.68 85.33 37.51 83.16L37.51 83.16Q41.14 82.43 57.11 76.38L57.11 76.38Q73.81 69.85 83.01 74.44L83.01 74.44ZM34.85 131.31L34.85 131.31Q29.28 124.30 26.38 113.89L26.38 113.89Q24.44 107.11 26.38 104.45L26.38 104.45Q36.06 107.11 41.14 117.04L41.14 117.04Q45.74 126.23 40.41 130.10L40.41 130.10Q38.48 131.56 34.85 131.31ZM87.85 133.49L87.85 133.49Q87.85 136.64 83.49 138.57L83.49 138.57L44.53 156.72Q27.10 166.16 23.47 167.86L23.47 167.86Q21.54 168.58 19.84 168.58L19.84 168.58Q15.49 168.58 8.23 163.02L8.23 163.02Q5.08 160.84 3.39 159.87L3.39 159.87Q2.66 158.66 2.66 155.03L2.66 155.03L4.36 153.34Q16.21 152.85 44.29 145.59L44.29 145.59Q49.13 144.14 52.51 143.41L52.51 143.41Q59.53 117.28 60.26 113.16L60.26 113.16Q62.44 102.27 60.98 97.68L60.98 97.68L59.53 94.77L59.53 94.53L60.02 93.32Q66.79 89.45 76.47 98.40L76.47 98.40Q76.71 98.89 78.17 100.10L78.17 100.10L78.17 103.00Q73.81 109.53 64.86 130.35L64.86 130.35Q62.44 136.15 60.26 140.27L60.26 140.27L81.80 134.22Q84.94 133.49 87.85 133.49Z" stroke="#000" fill="black" /></svg>