<?xml version="1.0" encoding="UTF-8" standalone="no"?>
        <svg 
    viewBox="3.8818359375 -85.7666015625 448.3154296875 56.9091796875"
    width="444.43359375"
    height="142.67578125"
   xmlns="http://www.w3.org/2000/svg"
   xmlns:svg="http://www.w3.org/2000/svg">
   <path d="M49.51-44.38L48.27-48.63L77.42-48.63L86.87-60.28Q86.87-60.28 89.83-58.08Q92.80-55.88 96.86-52.73Q100.93-49.58 104.22-46.80L104.22-46.80Q103.56-44.38 100.05-44.38L100.05-44.38L49.51-44.38ZM93.46-20.87L94.48-21.90Q107.96-21.61 116.46-18.68Q124.95-15.75 129.27-11.46Q133.59-7.18 134.44-2.71Q135.28 1.76 133.41 5.20Q131.54 8.64 127.62 9.89Q123.71 11.13 118.51 8.86L118.51 8.86Q115.87 3.59 111.66-1.87Q107.45-7.32 102.61-12.23Q97.78-17.14 93.46-20.87L93.46-20.87ZM78.74-97.92L80.57-99.02Q84.01-89.58 90.09-82.58Q96.17-75.59 103.93-70.53L103.93-70.53Q107.08-78.15 108.91-85.03L108.91-85.03L91.33-85.03L90.01-89.28L108.18-89.28L118.65-99.76L136.82-82.76Q135.28-81.08 130.81-80.71L130.81-80.71Q126.86-77.34 121.33-73.65Q115.80-69.95 109.94-67.02L109.94-67.02Q118.14-62.77 127.33-59.95Q136.52-57.13 146.12-55.22L146.12-55.22L145.97-53.54Q139.89-52.08 135.79-47.42Q131.69-42.77 129.79-35.52L129.79-35.52Q116.60-41.16 106.57-49.07Q96.53-56.98 89.58-68.81Q82.62-80.64 78.74-97.92L78.74-97.92ZM23.58-27.17L22.34-31.35L99.90-31.35L109.35-42.63Q109.35-42.63 112.32-40.47Q115.28-38.31 119.38-35.27Q123.49-32.23 126.78-29.52L126.78-29.52Q126.34-27.17 122.68-27.17L122.68-27.17L85.62-27.17L85.62-8.42Q85.62-1.83 84.01 3.04Q82.40 7.91 77.31 10.77Q72.22 13.62 61.82 14.43L61.82 14.43Q61.60 9.81 61.16 6.41Q60.72 3.00 59.40 0.88L59.40 0.88Q58.30-1.10 56.18-2.71Q54.05-4.32 49.37-5.27L49.37-5.27L49.37-7.03Q49.37-7.03 52.00-6.88Q54.64-6.74 57.71-6.59Q60.79-6.45 62.11-6.45L62.11-6.45Q64.67-6.45 64.67-8.72L64.67-8.72L64.67-27.17L38.53-27.17L60.28-14.87Q59.77-13.70 58.48-13.15Q57.20-12.60 54.57-13.04L54.57-13.04Q46.58-5.42 34.13 1.03Q21.68 7.47 7.18 10.47L7.18 10.47L6.15 8.86Q13.18 4.25 19.45-1.90Q25.71-8.06 30.51-14.65Q35.30-21.24 38.09-27.17L38.09-27.17L23.58-27.17ZM37.21-55.81L37.21-55.81Q38.75-57.57 40.28-59.40Q41.82-61.23 43.21-62.99L43.21-62.99Q41.16-62.99 38.67-64.38L38.67-64.38Q38.01-66.72 36.58-69.36Q35.16-72.00 33.47-74.12L33.47-74.12Q31.20-72.29 28.82-70.53Q26.44-68.77 23.88-67.24L23.88-67.24Q31.86-65.77 34.75-62.37Q37.65-58.96 37.21-55.81ZM5.13-107.37L4.03-111.62L41.38-111.62L41.38-128.10L67.24-125.98Q67.09-124.44 66.06-123.41Q65.04-122.39 62.11-121.95L62.11-121.95L62.11-111.62L86.57-111.62L86.57-128.10L112.94-125.98Q112.72-124.44 111.66-123.41Q110.60-122.39 107.52-121.95L107.52-121.95L107.52-111.62L119.53-111.62L128.98-124.07Q128.98-124.07 131.95-121.73Q134.91-119.38 138.90-116.05Q142.90-112.72 145.97-109.79L145.97-109.79Q145.31-107.37 141.72-107.37L141.72-107.37L107.52-107.37L107.52-99.90Q107.52-98.66 102.43-97.34Q97.34-96.02 90.01-96.02L90.01-96.02L86.57-96.02L86.57-107.37L62.11-107.37L62.11-99.17Q62.11-98.22 58.63-97.05Q55.15-95.87 49.95-95.43L49.95-95.43L55.81-94.04Q55.44-92.80 54.31-92.25Q53.17-91.70 50.10-91.77L50.10-91.77Q48.05-88.84 45.63-85.99L45.63-85.99L54.27-85.99L64.53-95.58L81.01-81.30Q79.76-79.32 74.85-78.88L74.85-78.88Q65.19-61.67 47.46-48.67Q29.74-35.67 4.98-28.93L4.98-28.93L3.88-30.91Q11.57-34.72 18.49-39.59Q25.42-44.46 31.49-50.10L31.49-50.10Q28.20-49.37 24.90-51.78L24.90-51.78Q24.68-55.00 23.11-58.45Q21.53-61.89 19.48-64.53L19.48-64.53Q16.33-62.84 13.07-61.30Q9.81-59.77 6.45-58.52L6.45-58.52L5.27-59.84Q10.84-64.31 15.93-70.79Q21.02-77.27 24.94-84.70Q28.86-92.14 31.05-99.46L31.05-99.46L41.38-97.19L41.38-107.37L5.13-107.37ZM49.66-72.44L49.66-72.44Q52.51-77.20 54.42-81.74L54.42-81.74L41.67-81.74L37.79-77.86Q42.85-77.42 45.70-75.88Q48.56-74.34 49.66-72.44ZM250.63-68.26L250.63-88.18L272.09-86.57Q271.88-83.50 267.77-82.76L267.77-82.76L267.77-71.85Q267.77-70.75 268.18-70.31Q268.58-69.87 270.26-69.87L270.26-69.87L275.68-69.87Q277.08-69.87 278.32-69.87Q279.57-69.87 280.37-69.87L280.37-69.87Q282.20-69.87 283.37-70.83L283.37-70.83Q285.28-72.73 288.28-79.17L288.28-79.17L289.82-79.17L290.41-70.83Q293.41-69.43 294.40-67.93Q295.39-66.43 295.39-64.23L295.39-64.23Q295.39-59.25 290.37-56.91Q285.35-54.57 273.49-54.57L273.49-54.57L264.77-54.57Q258.47-54.57 255.47-55.85Q252.47-57.13 251.55-60.10Q250.63-63.06 250.63-68.26L250.63-68.26ZM160.77-84.74L162.74-85.47Q172.34-76.98 176.73-69.10Q181.13-61.23 181.71-54.68Q182.30-48.12 180.29-43.43Q178.27-38.75 174.94-36.55Q171.61-34.35 168.16-35.27Q164.72-36.18 162.60-40.80L162.60-40.80Q163.40-46.14 163.84-53.72Q164.28-61.30 163.66-69.47Q163.04-77.64 160.77-84.74L160.77-84.74ZM172.34-96.46L172.34-126.78L197.39-124.80Q197.31-123.34 196.29-122.35Q195.26-121.36 192.63-120.92L192.63-120.92L192.63-100.05L198.93-109.35L207.71-101.22L226.46-100.93Q228.30-107.59 229.69-114.92Q231.08-122.24 231.88-127.95L231.88-127.95L259.50-121.36Q258.54-118.21 253.78-118.21L253.78-118.21Q246.46-110.16 234.89-100.93L234.89-100.93L268.95-101.07Q263.53-108.11 256.93-112.79L256.93-112.79L258.18-113.82Q270.56-113.09 278.21-109.90Q285.86-106.71 289.56-102.39Q293.26-98.07 293.74-93.71Q294.21-89.36 292.20-86.17Q290.19-82.98 286.45-82.07Q282.71-81.15 278.10-83.86L278.10-83.86Q276.27-90.60 271.95-96.90L271.95-96.90Q264.77-94.56 255.07-91.70Q245.36-88.84 232.47-85.47L232.47-85.47L249.90-79.83Q249.46-78.66 248.36-77.97Q247.27-77.27 244.63-77.27L244.63-77.27Q242.43-72.95 239.39-69.07Q236.35-65.19 232.47-61.96L232.47-61.96L257.67-51.93Q257.15-50.54 255.58-49.77Q254.00-49.00 251.37-49.22L251.37-49.22L247.05-42.92L258.03-42.92L269.38-53.25L286.96-37.35Q286.16-36.11 284.80-35.63Q283.45-35.16 280.66-34.79L280.66-34.79Q273.93-23.29 263.96-14.58L263.96-14.58Q271.22-12.30 279.82-10.91Q288.43-9.52 298.17-8.86L298.17-8.86L298.02-7.03Q291.50-4.32 288.50 0.92Q285.50 6.15 284.69 14.28L284.69 14.28Q272.75 11.57 264.11 6.99Q255.47 2.42 249.17-3.88L249.17-3.88Q236.79 3.44 221.12 7.87Q205.44 12.30 186.47 14.14L186.47 14.14L185.82 12.30Q202.73 8.06 216.54 1.28Q230.35-5.49 240.45-14.72L240.45-14.72Q238.40-17.87 236.68-21.31Q234.96-24.76 233.42-28.49L233.42-28.49Q225.66-21.83 216.91-17.21Q208.15-12.60 199.07-9.45L199.07-9.45L197.83-10.77Q204.49-16.26 210.97-24.06Q217.46-31.86 222.84-41.31Q228.22-50.76 231.74-61.38L231.74-61.38Q225.88-56.40 218.26-52.92Q210.64-49.44 201.27-47.97L201.27-47.97L200.39-49.80Q210.64-55.44 216.69-64.56Q222.73-73.68 225.44-83.72L225.44-83.72L221.41-82.62Q219.58-79.76 216.72-79.47L216.72-79.47L210.57-92.29L210.28-92.29L155.27-92.29L154.03-96.46L172.34-96.46ZM258.18-38.67L258.18-38.67L243.60-38.67Q241.92-36.69 240.20-34.86Q238.48-33.03 236.57-31.35L236.57-31.35Q241.11-25.85 247.49-21.90L247.49-21.90Q254.08-29.59 258.18-38.67ZM187.94-88.33L187.94-88.33L213.28-82.62Q212.84-81.15 211.56-80.16Q210.28-79.17 207.57-79.03L207.57-79.03Q204.64-69.14 199.84-56.10Q195.04-43.07 189.33-30.62L189.33-30.62Q195.63-32.52 202.04-34.64Q208.45-36.77 214.67-38.96L214.67-38.96L214.97-37.65Q207.28-30.54 195.85-21.46Q184.42-12.38 167.43-1.83L167.43-1.83Q166.41 1.54 163.33 2.71L163.33 2.71L152.42-21.02Q157.69-22.05 165.78-24.06Q173.88-26.07 183.33-28.78L183.33-28.78Q184.42-38.31 185.38-48.89Q186.33-59.47 186.99-69.69Q187.65-79.91 187.94-88.33ZM354.93-126.64L354.93-126.64L379.32-121.22Q378.88-119.97 377.75-119.42Q376.61-118.87 373.83-119.09L373.83-119.09Q370.90-113.01 367.02-106.93L367.02-106.93L371.70-106.93L380.71-115.94L391.48-106.93L413.82-106.93L413.82-126.27L435.86-124.37Q435.79-123.34 435.17-122.57Q434.55-121.80 432.57-121.51L432.57-121.51L432.57-108.33L437.55-116.67Q437.55-116.67 439.34-114.73Q441.14-112.79 443.48-110.08Q445.83-107.37 447.44-105.18L447.44-105.18Q447.00-102.76 443.70-102.76L443.70-102.76L432.57-102.76L432.57-77.42L437.55-86.13Q437.55-86.13 439.45-84.05Q441.36-81.96 443.88-79.06Q446.41-76.17 448.17-73.83L448.17-73.83Q447.51-71.41 444.43-71.41L444.43-71.41L432.57-71.41L432.57-57.71Q432.57-56.76 430.04-55.11Q427.51-53.47 423.85-52.15Q420.19-50.83 416.82-50.83L416.82-50.83L413.82-50.83L413.82-71.41L385.33-71.41L384.16-75.59L392.29-75.59L392.29-100.63L391.04-100.49Q387.82-88.62 381.52-78.33Q375.22-68.04 365.08-59.99Q354.93-51.93 340.06-46.66L340.06-46.66L338.96-48.49Q347.46-53.76 353.61-60.64Q359.77-67.53 363.87-75.59L363.87-75.59Q359.84-75.15 355.96-78.15L355.96-78.15Q356.32-81.08 355.48-84.05Q354.64-87.01 353.10-89.43L353.10-89.43Q347.09-83.42 339.92-78.88L339.92-78.88L338.53-79.98Q342.55-85.55 345.81-93.42Q349.07-101.29 351.42-109.94Q353.76-118.58 354.93-126.64ZM408.18-75.59L413.82-75.59L413.82-102.76L408.18-102.76L408.18-75.59ZM381.45-41.09L381.45-63.43L407.67-61.23Q407.45-59.84 406.49-58.78Q405.54-57.71 402.76-57.28L402.76-57.28L402.76-41.09L418.65-41.09L428.25-53.10Q428.25-53.10 431.25-50.83Q434.25-48.56 438.39-45.34Q442.53-42.11 445.83-39.33L445.83-39.33Q445.17-36.91 441.58-36.91L441.58-36.91L406.79-36.91Q411.55-31.27 418.32-26.84Q425.10-22.41 432.86-19.30Q440.63-16.19 448.32-14.58L448.32-14.58L448.02-12.89Q436.16-9.45 432.28 6.88L432.28 6.88Q421.14-0.22 414.33-11.10Q407.52-21.97 403.34-36.91L403.34-36.91L402.76-36.91L402.76 8.86Q402.76 9.59 400.05 10.84Q397.34 12.08 393.35 13.11Q389.36 14.14 385.33 14.14L385.33 14.14L381.45 14.14L381.45-18.60Q373.10-10.47 362.29-4.03Q351.49 2.42 338.96 7.32L338.96 7.32L337.79 5.57Q348.85-2.56 357.31-13.88Q365.77-25.20 370.83-36.91L370.83-36.91L341.67-36.91L340.50-41.09L381.45-41.09ZM372.73-102.76L364.38-102.76Q361.01-98.00 357.13-93.75L357.13-93.75Q361.74-93.31 364.75-92.07Q367.75-90.82 369.43-89.28L369.43-89.28Q370.46-92.50 371.26-95.87Q372.07-99.24 372.73-102.76L372.73-102.76ZM323.07-128.25L323.07-128.25L349.51-119.97Q348.56-116.82 343.51-116.82L343.51-116.82Q340.58-106.71 336.95-97.60Q333.33-88.48 328.93-80.42L328.93-80.42L339.77-76.32Q339.33-75.37 338.20-74.60Q337.06-73.83 334.94-73.54L334.94-73.54L334.94 8.86Q334.86 9.52 332.45 10.77Q330.03 12.01 326.40 13.07Q322.78 14.14 319.04 14.14L319.04 14.14L315.45 14.14L315.45-59.69Q312.96-56.69 310.29-53.80Q307.62-50.90 304.83-48.27L304.83-48.27L303.00-49.37Q307.40-59.40 311.43-72.36Q315.45-85.33 318.49-99.72Q321.53-114.11 323.07-128.25Z"/>
    </svg>
        