<svg width="242" height="242" version="1.1" xmlns="http://www.w3.org/2000/svg" xmlns:xlink="http://www.w3.org/1999/xlink"><path d="M188.28 52.27L188.76 55.66L186.34 56.87Q168.67 54.45 135.76 58.81L135.76 58.81L132.86 59.05Q126.32 72.12 123.90 75.26L123.90 75.26Q122.69 76.96 121.24 78.17L121.24 78.17Q115.19 78.89 123.66 57.60L123.66 57.60L119.06 54.45Q118.34 53.48 118.34 52.27L118.34 52.27L125.60 50.82Q128.02 37.51 127.53 34.12L127.53 34.12Q127.29 31.46 126.57 29.28L126.57 29.28Q126.57 27.35 128.26 26.14L128.26 26.14Q136.73 26.14 144.47 34.85L144.47 34.85Q144.23 37.51 139.39 45.01L139.39 45.01L137.70 48.88L137.70 49.37Q140.84 49.37 158.75 46.22L158.75 46.22Q177.87 43.08 186.58 50.58L186.58 50.58Q187.31 51.30 188.28 52.27L188.28 52.27ZM215.62 163.35L215.62 163.35Q194.57 169.16 181.98 167.95L181.98 167.95L180.53 167.95Q167.46 166.01 140.60 133.58L140.60 133.58L113.98 100.91Q109.38 95.83 106.00 92.69L106.00 92.69Q106.48 90.75 108.17 90.75L108.17 90.75Q117.61 90.75 126.81 102.12L126.81 102.12Q135.28 112.77 137.94 115.19L137.94 115.19L152.94 91.23Q152.94 90.51 151.49 87.60L151.49 87.60Q145.93 88.57 131.89 93.65L131.89 93.65Q124.39 93.65 123.18 88.33L123.18 88.33L151.98 79.86Q154.15 79.13 156.09 78.17L156.09 78.17Q164.32 79.86 175.45 89.54L175.45 89.54Q175.45 91.72 172.79 92.93L172.79 92.93Q162.87 98.49 144.23 115.19L144.23 115.19L141.09 117.85Q161.41 140.12 181.26 147.86L181.26 147.86L208.60 157.30Q213.20 159.24 214.90 160.69L214.90 160.69Q215.62 161.41 215.62 163.35ZM97.04 54.45L97.04 54.45Q97.04 57.35 93.90 58.56L93.90 58.56Q87.36 58.56 87.36 63.89L87.36 63.89L88.33 74.78L87.85 77.20Q87.85 78.65 84.22 78.65L84.22 78.65Q81.07 75.26 79.13 64.61L79.13 64.61Q78.89 63.65 78.89 62.68L78.89 62.68L41.38 71.39Q28.07 69.21 26.62 60.98L26.62 60.98Q28.80 60.50 42.11 60.26L42.11 60.26Q45.01 60.26 47.43 59.77L47.43 59.77L76.47 55.66Q74.54 47.43 68.00 38.72L68.00 38.72Q67.76 32.91 82.52 38.24L82.52 38.24Q84.46 38.96 84.94 38.96L84.94 38.96L87.12 41.62L87.36 53.72L94.38 53.00Q96.07 53.24 97.04 54.45ZM130.68 135.76L130.68 135.76Q130.68 139.39 128.26 140.12L128.26 140.12L120.27 141.33L98.49 145.93Q87.12 147.62 80.34 143.99L80.34 143.99L77.68 142.30Q76.47 141.57 76.47 140.12L76.47 140.12Q78.89 138.42 89.06 137.70L89.06 137.70Q91.72 137.46 93.41 136.97L93.41 136.97L112.53 131.89Q124.39 129.95 130.68 135.76ZM167.95 223.37L167.95 223.37Q164.56 223.12 161.17 219.49L161.17 219.49L143.99 201.34L133.83 191.66L133.34 191.18Q131.41 188.76 131.41 186.82L131.41 186.82L131.89 185.61L132.62 184.89L152.94 193.12Q170.85 202.07 171.58 216.11L171.58 216.11Q171.58 221.19 167.95 223.37ZM97.53 100.43L98.49 101.88Q98.01 102.85 93.41 107.45L93.41 107.45Q91.96 108.66 91.23 109.87L91.23 109.87Q70.42 139.39 65.82 145.20L65.82 145.20Q33.40 185.86 7.02 185.86L7.02 185.86L7.02 185.13Q55.66 154.64 74.29 117.13L74.29 117.13Q74.54 116.64 74.78 116.40L74.78 116.40Q79.13 108.17 79.86 103.58L79.86 103.58Q80.10 101.16 77.44 101.16L77.44 101.16L66.79 102.12Q63.65 101.88 61.95 99.95L61.95 99.95L50.09 112.77L60.50 116.64Q62.44 117.85 63.40 119.55L63.40 119.55Q63.89 120.76 64.13 122.21L64.13 122.21L63.89 125.11Q63.40 125.84 62.68 126.32L62.68 126.32Q58.08 126.08 50.82 118.82L50.82 118.82Q48.40 116.64 47.19 115.68L47.19 115.68L33.15 127.29L44.53 131.89Q47.19 133.58 48.40 136.00L48.40 136.00Q49.61 137.94 49.61 140.36L49.61 140.36Q49.61 143.26 47.92 144.47L47.92 144.47Q42.83 142.54 33.15 133.83L33.15 133.83Q30.49 131.41 28.80 129.95L28.80 129.95Q25.89 132.62 20.81 132.62L20.81 132.62L20.81 131.89Q39.93 112.53 40.17 112.05L40.17 112.05Q53.24 97.77 56.14 88.09L56.14 88.09L56.39 80.83Q56.87 79.62 58.08 79.38L58.08 79.38Q61.47 78.89 66.79 84.46L66.79 84.46Q69.21 86.64 69.94 88.33L69.94 88.33Q71.15 91.23 67.03 94.38L67.03 94.38L64.37 97.04Q66.07 97.04 78.17 93.90L78.17 93.90Q84.94 92.20 87.85 93.41L87.85 93.41Q93.65 95.59 97.53 100.43L97.53 100.43ZM154.15 164.56L154.15 164.56Q154.15 166.98 152.22 167.46L152.22 167.46Q150.77 167.95 139.63 167.71L139.63 167.71Q138.67 167.71 137.94 167.95L137.94 167.95Q119.79 167.95 105.27 169.64L105.27 169.64Q112.29 173.76 111.08 185.61L111.08 185.61Q110.35 194.57 110.35 195.54L110.35 195.54L111.32 209.33L111.32 209.57Q111.32 228.45 102.12 239.58L102.12 239.58Q98.49 239.58 94.14 233.29L94.14 233.29Q92.44 230.87 91.23 229.66L91.23 229.66L78.41 216.59L78.89 213.93L95.35 215.38L95.59 215.38L97.77 212.48Q100.19 193.84 98.01 180.77L98.01 180.77Q97.28 175.45 95.59 170.85L95.59 170.85Q93.90 170.85 77.44 173.76L77.44 173.76Q58.81 177.14 53.48 169.64L53.48 169.64Q53.97 168.67 54.69 168.19L54.69 168.19Q60.02 166.74 90.02 163.11L90.02 163.11Q94.86 162.62 98.01 162.14L98.01 162.14L128.50 156.57Q130.68 156.09 132.86 156.09L132.86 156.09Q140.12 155.36 147.38 158.99L147.38 158.99Q151.73 161.17 154.15 164.56ZM45.74 222.64L45.74 222.64Q42.11 222.64 40.90 220.70L40.90 220.70Q37.27 213.44 48.64 202.07L48.64 202.07Q59.05 191.42 59.29 190.94L59.29 190.94Q61.23 188.76 61.95 186.82L61.95 186.82Q63.89 184.89 65.82 186.82L65.82 186.82Q66.55 187.55 66.79 188.76L66.79 188.76Q66.79 192.39 65.34 195.29L65.34 195.29Q60.26 217.07 45.74 222.64Z" stroke="#000" fill="black" /></svg>